<?xml version="1.0" standalone="no"?>
<!DOCTYPE svg PUBLIC "-//W3C//DTD SVG 20010904//EN"
 "http://www.w3.org/TR/2001/REC-SVG-20010904/DTD/svg10.dtd">
<svg version="1.0" xmlns="http://www.w3.org/2000/svg"
 width="512.000000pt" height="512.000000pt" viewBox="0 0 512.000000 512.000000"
 preserveAspectRatio="xMidYMid meet">
<metadata>
Created by potrace 1.14, written by Peter Selinger 2001-2017
</metadata>
<g transform="translate(0.000000,512.000000) scale(0.100000,-0.100000)"
fill="#000000" stroke="none">
<path d="M0 2560 l0 -2560 2560 0 2560 0 0 2560 0 2560 -2560 0 -2560 0 0
-2560z m1916 1839 c164 -23 362 -105 539 -223 54 -36 101 -66 105 -66 3 0 49
29 103 64 262 172 516 254 709 227 287 -40 464 -243 524 -601 13 -78 15 -144
12 -284 l-4 -184 105 -52 c161 -80 266 -153 377 -264 105 -105 154 -179 196
-292 16 -46 21 -82 21 -164 0 -82 -5 -118 -21 -164 -42 -113 -91 -187 -196
-292 -111 -111 -216 -184 -377 -264 l-104 -52 4 -184 c2 -141 -1 -208 -14
-286 -59 -356 -237 -559 -523 -599 -190 -27 -452 57 -706 225 -55 36 -103 66
-106 66 -4 0 -51 -30 -105 -66 -249 -166 -517 -252 -707 -225 -287 40 -464
243 -524 601 -13 78 -15 144 -12 284 l4 183 -111 56 c-164 83 -259 150 -371
262 -105 104 -154 176 -196 291 -30 84 -30 244 0 328 42 114 91 187 196 291
112 112 206 178 371 262 l111 56 -4 183 c-6 259 22 414 106 580 83 165 236
278 412 303 80 12 100 12 186 0z"/>
<path d="M1755 4101 c-119 -31 -195 -136 -232 -321 -14 -72 -23 -323 -12 -334
3 -3 66 10 140 28 74 19 180 42 237 52 l103 18 87 100 c48 56 122 138 165 182
l78 82 -63 40 c-188 118 -395 181 -503 153z"/>
<path d="M3230 4104 c-98 -19 -247 -82 -357 -150 l-73 -45 104 -112 c57 -62
130 -144 163 -183 55 -67 61 -72 108 -78 72 -10 233 -44 339 -71 50 -13 93
-22 95 -19 10 9 3 249 -8 314 -28 159 -94 276 -183 321 -39 20 -139 32 -188
23z"/>
<path d="M2490 3645 l-64 -65 134 0 134 0 -64 65 c-35 36 -67 65 -70 65 -3 0
-35 -29 -70 -65z"/>
<path d="M2380 3279 c-239 -11 -214 0 -307 -137 -104 -153 -176 -276 -259
-444 l-67 -138 67 -137 c121 -246 319 -558 360 -569 79 -19 657 -19 762 1 27
5 44 23 111 123 104 153 176 276 259 445 l67 137 -67 138 c-37 75 -93 180
-123 232 -76 129 -212 327 -229 334 -8 3 -80 8 -161 11 -82 3 -170 7 -198 9
-27 1 -124 -1 -215 -5z m332 -417 c76 -37 120 -82 157 -162 22 -46 26 -69 26
-140 0 -76 -4 -93 -33 -152 -37 -76 -82 -120 -162 -157 -46 -22 -69 -26 -140
-26 -71 0 -94 4 -140 26 -80 37 -125 81 -162 157 -30 61 -33 75 -33 157 0 78
4 97 27 141 37 70 72 110 125 141 74 43 113 53 193 51 62 -3 88 -9 142 -36z"/>
<path d="M1647 3166 c-42 -13 -80 -26 -83 -29 -7 -6 17 -110 34 -158 l10 -24
18 34 c11 18 40 69 67 113 26 44 47 81 47 84 0 7 -10 4 -93 -20z"/>
<path d="M3380 3184 c0 -5 14 -29 31 -54 16 -25 43 -71 59 -102 16 -31 34 -59
39 -62 10 -7 55 149 48 168 -3 6 -38 20 -78 30 -41 11 -80 21 -86 24 -7 2 -13
0 -13 -4z"/>
<path d="M1186 2985 c-171 -98 -289 -203 -342 -306 -40 -76 -40 -163 -1 -234
40 -73 96 -134 180 -198 75 -58 223 -147 243 -147 6 0 19 30 28 68 9 37 42
141 73 232 l55 166 -36 98 c-38 101 -106 327 -106 352 0 21 -7 18 -94 -31z"/>
<path d="M3820 2933 c-12 -49 -45 -152 -72 -230 l-49 -141 60 -179 c32 -98 65
-204 72 -235 7 -32 15 -58 18 -58 13 0 161 89 223 132 84 61 169 152 204 219
40 76 40 163 1 234 -40 73 -96 134 -180 198 -74 58 -222 147 -243 147 -6 0
-21 -39 -34 -87z"/>
<path d="M1581 2082 c-12 -43 -21 -84 -21 -90 0 -9 57 -30 163 -59 24 -6 21 5
-14 57 -16 25 -43 71 -59 102 -16 31 -34 59 -39 62 -5 3 -18 -29 -30 -72z"/>
<path d="M3504 2149 c-7 -8 -22 -34 -34 -58 -12 -25 -38 -69 -58 -98 -19 -29
-33 -55 -30 -58 2 -2 42 6 89 19 l84 23 -2 34 c-1 19 -10 61 -20 93 -14 47
-21 56 -29 45z"/>
<path d="M1506 1618 c-3 -35 -2 -110 4 -168 17 -176 50 -277 116 -349 60 -68
104 -85 204 -84 125 1 262 51 427 155 l63 40 -95 101 c-53 55 -126 138 -163
182 l-67 81 -105 18 c-58 10 -166 33 -240 52 -74 19 -136 34 -136 34 -1 0 -4
-28 -8 -62z"/>
<path d="M3545 1664 c-82 -23 -255 -61 -338 -74 l-77 -13 -88 -101 c-48 -56
-122 -138 -165 -182 l-78 -82 63 -40 c167 -105 305 -155 428 -156 100 0 144
18 204 84 66 73 100 179 116 354 9 103 4 227 -9 225 -3 0 -28 -7 -56 -15z"/>
<path d="M2493 1473 l67 -68 67 68 68 67 -135 0 -135 0 68 -67z"/>
</g>
</svg>
